<svg xmlns="http://www.w3.org/2000/svg" xmlns:xlink="http://www.w3.org/1999/xlink" version="1.1" viewBox="328 722 64 80" x="0px" y="0px"><g><g style="" fill="rgb(0,0,0)" fill-opacity="1.0" stroke-linejoin=" miter"><path d="M359.98965,734.8278C359.98965,734.8278,359.98944,734.8278,359.98944,734.8278C358.74112,734.8278,357.72894,735.8398,357.72894,737.0883C357.72894,738.3368,358.74112,739.3489,359.98953,739.3489C361.23785,739.3489,362.25012,738.3366,362.25012,737.0883C362.25012,735.8398,361.23822,734.8278,359.9899,734.8278 Z M359.989,732.5627C359.989,732.5627,359.98987,732.5627,359.98987,732.5627C362.4894,732.5627,364.51514,734.5888,364.51514,737.0883C364.51514,739.5874,362.48892,741.614,359.98953,741.614C357.49005,741.614,355.46393,739.5874,355.46393,737.0883C355.46393,734.5888,357.48944,732.5627,359.98892,732.5627 Z M359.98953,742.66675C359.98953,742.66675,359.98996,742.66675,359.98996,742.66675C360.61554,742.66675,361.12204,743.1738,361.12204,743.7993L361.12204,752.1488C361.12204,752.7741,360.61502,753.2814,359.98953,753.2814C359.36404,753.2814,358.85703,752.7743,358.85703,752.1488L358.85703,743.7993C358.85703,743.174,359.36395,742.66675,359.98944,742.66675 Z M359.99518,722.727C359.99518,722.727,359.99496,722.727,359.99496,722.727C359.72107,722.727,359.4536,722.8454,359.23444,723.0096L359.23233,723.0114C355.63242,725.7373,351.612,728.7582,350.49832,734.1234L350.49814,734.1243C349.41498,739.34155,351.14508,746.6754,352.75366,753.6004C352.84827,754.0077,353.15558,754.3321,353.55713,754.4486L355.33664,754.96533L356.38913,756.39966C356.6069,756.6964,356.95294,756.8716,357.32086,756.8716L362.6534,756.87366C363.0211,756.8727,363.367,756.6977,363.58478,756.4012L364.63788,754.96826L366.4176,754.45135C366.8192,754.33496,367.12665,754.01074,367.22144,753.60345C368.83295,746.67914,370.56598,739.34607,369.48505,734.1284L369.48483,734.1274C368.37344,728.76166,364.35416,725.73895,360.75543,723.0106L360.75327,723.00903C360.73303,722.9942,360.71353,722.97815,360.69354,722.96295L360.69202,722.9618C360.4832,722.80145,360.23886,722.727,359.9955,722.727 Z M349.9814,743.63416C349.9814,743.63416,349.98053,743.635,349.98053,743.635C349.11978,744.45996,348.21643,745.4099,347.50418,746.6821L347.5038,746.6828C346.63126,748.24036,346.0076,750.34045,346.5222,752.6561L346.52234,752.65686C347.01456,754.871,348.55615,757.18463,349.90894,759.2409C350.12695,759.5723,350.49335,759.7615,350.87442,759.7615C350.99362,759.7615,351.1143,759.743,351.23227,759.7045C351.72675,759.5435,352.05264,759.072,352.02866,758.5527L352.0262,758.5013L352.0262,758.501C351.93512,756.6049,351.87418,754.96643,352.10577,753.84814L352.1059,753.8476C352.09753,753.81635,352.08984,753.7867,352.0829,753.7567C351.8376,752.7007,351.58768,751.62915,351.3445,750.5522L351.34445,750.5519C350.82187,748.2365,350.33023,745.8976,349.98224,743.63336 Z M370.0053,743.6387C370.0053,743.6387,370.00522,743.63934,370.00522,743.63934C369.4938,746.9572,368.67075,750.4348,367.89685,753.7601C367.88977,753.79047,367.88196,753.8206,367.8734,753.8504L367.87372,753.85187C368.10492,754.96936,368.0433,756.6083,367.95145,758.50433L367.95145,758.50464L367.94907,758.5541L367.94907,758.55505C367.92398,759.07416,368.24985,759.54675,368.74487,759.70825C368.863,759.7468,368.9838,759.7654,369.10315,759.7654C369.48407,759.7654,369.85028,759.5764,370.0684,759.2452C371.42203,757.18945,372.96463,754.87646,373.4578,752.6626L373.4581,752.6613C373.97366,750.3458,373.35092,748.24634,372.47903,746.6884L372.4785,746.68744C371.76685,745.41504,370.8658,744.46313,370.00546,743.6378 Z M356.34772,758.16486C356.34772,758.16486,356.34735,758.16486,356.34735,758.16486C355.70917,758.16486,355.19232,758.68225,355.19232,759.32043L355.19232,763.0704C355.19232,763.70856,355.7097,764.22595,356.34787,764.22595C356.98605,764.22595,357.50342,763.70856,357.50342,763.0704L357.50342,759.32043C357.50342,758.68225,356.98596,758.16486,356.34778,758.16486 Z M363.63336,758.16486C363.63336,758.16486,363.63306,758.16486,363.63306,758.16486C362.99487,758.16486,362.47772,758.68225,362.47772,759.32043L362.47772,763.0704C362.47772,763.70856,362.9951,764.22595,363.63327,764.22595C364.27145,764.22595,364.78882,763.70856,364.78882,763.0704L364.78882,759.32043C364.78882,758.68225,364.2718,758.16486,363.6336,758.16486 Z M359.99054,761.1404C359.99054,761.1404,359.99026,761.1404,359.99026,761.1404C359.35208,761.1404,358.83502,761.6578,358.83502,762.29596L358.83502,766.0459C358.83502,766.6841,359.3524,767.2015,359.99057,767.2015C360.62875,767.2015,361.14612,766.6841,361.14612,766.0459L361.14612,762.29596C361.14612,761.6578,360.62888,761.1404,359.9907,761.1404 Z M341.2168,767.328C341.2168,767.328,341.21616,767.328,341.21616,767.328C336.69122,767.328,333.02353,770.9962,333.02353,775.52106C333.02353,775.5777,333.0241,775.6342,333.02524,775.6906L333.02527,775.6916C331.8797,776.69073,331.15598,778.16187,331.15598,779.802C331.15598,782.815,333.59854,785.2578,336.61172,785.2578C336.64655,785.2578,383.62866,785.25543,383.6722,785.2517L383.67792,785.2512C386.54758,785.0893,388.82516,782.7115,388.82516,779.802C388.82516,778.16296,388.10184,776.69507,386.9576,775.69495L386.956,775.69354C386.95703,775.6324,386.9576,775.5768,386.9576,775.52106C386.9576,770.9962,383.28952,767.328,378.7646,767.328C375.2038,767.328,372.1738,769.59985,371.04416,772.7729L371.0439,772.7736C370.64816,772.636,370.22327,772.5617,369.78104,772.5617C367.98413,772.5617,366.47354,773.7876,366.03998,775.44867L366.03552,775.45026C365.09937,775.7851,364.2973,776.4,363.72754,777.19385L363.72723,777.1943C363.31604,777.03723,362.8701,776.9518,362.40417,776.9518C361.32318,776.9518,360.35004,777.4123,359.66895,778.14716L359.66855,778.1476C358.9889,777.429,358.02704,776.9814,356.96066,776.9814C356.64252,776.9814,356.33405,777.0221,356.0392,777.09705L356.03885,777.09717C355.37213,776.2947,354.4518,775.71277,353.40173,775.46954L353.39886,775.4689C352.88922,773.9284,351.43823,772.8177,349.7278,772.8177C349.4713,772.8177,349.2212,772.8435,348.97864,772.8912L348.9781,772.8913C347.88214,769.65594,344.82178,767.328,341.21713,767.328 Z"/></g></g><text x="328" y="801" fill="#000000" font-size="5px" font-weight="bold" font-family="'Helvetica Neue', Helvetica, Arial-Unicode, Arial, Sans-serif">Created by Feri Saputra</text><text x="328" y="806" fill="#000000" font-size="5px" font-weight="bold" font-family="'Helvetica Neue', Helvetica, Arial-Unicode, Arial, Sans-serif">from the Noun Project</text></svg>